# xmcd CD database file
#
# Track frame offsets:
#	150
#	21375
#	52740
#	79257
#	86053
#	118132
#	157521
#	183308
#	220531
#	246612
#	274043
#
# Disc length: 4067 seconds
#
# Revision: 0
# Processed by: cddbd v1.5.2PL0 Copyright (c) Steve Scherf et al.
# Submitted via: CDex 1.70beta2
#
DISCID=8c0fe10b
DTITLE=Ben Wendel - Simple Song
DYEAR=2007
DGENRE=Jazz
TTITLE0=Breath
TTITLE1=Simple Song
TTITLE2=Not Yet
TTITLE3=Chorale
TTITLE4=No Thank You Mr. West
TTITLE5=Lonnie's Lament
TTITLE6=Maupin
TTITLE7=Ralph
TTITLE8=A Flower is a Lovesome Thing
TTITLE9=Trust Fall
TTITLE10=She Never Had
EXTD=YEAR: 2007
EXTT0=
EXTT1=
EXTT2=
EXTT3=
EXTT4=
EXTT5=
EXTT6=
EXTT7=
EXTT8=
EXTT9=
EXTT10=
PLAYORDER=
